<?xml version="1.0" encoding="UTF-8" standalone="no"?>
<!-- Created with Inkscape (http://www.inkscape.org/) -->

<svg
   width="1920"
   height="1280"
   viewBox="0 0 507.99999 338.66666"
   version="1.1"
   id="svg1"
   inkscape:version="1.3.2 (091e20e, 2023-11-25, custom)"
   sodipodi:docname="case-board.svg"
   xml:space="preserve"
   xmlns:inkscape="http://www.inkscape.org/namespaces/inkscape"
   xmlns:sodipodi="http://sodipodi.sourceforge.net/DTD/sodipodi-0.dtd"
   xmlns:xlink="http://www.w3.org/1999/xlink"
   xmlns="http://www.w3.org/2000/svg"
   xmlns:svg="http://www.w3.org/2000/svg"><sodipodi:namedview
     id="namedview1"
     pagecolor="#ffffff"
     bordercolor="#666666"
     borderopacity="1.0"
     inkscape:showpageshadow="2"
     inkscape:pageopacity="0.0"
     inkscape:pagecheckerboard="0"
     inkscape:deskcolor="#d1d1d1"
     inkscape:document-units="mm"
     inkscape:zoom="0.5"
     inkscape:cx="684"
     inkscape:cy="429"
     inkscape:window-width="1920"
     inkscape:window-height="1017"
     inkscape:window-x="-8"
     inkscape:window-y="-8"
     inkscape:window-maximized="1"
     inkscape:current-layer="layer1" /><defs
     id="defs1"><linearGradient
       id="swatch6"
       inkscape:swatch="solid"><stop
         style="stop-color:#f8f2de;stop-opacity:1;"
         offset="0"
         id="stop6" /></linearGradient><filter
       style="color-interpolation-filters:sRGB;"
       inkscape:label="Drop Shadow"
       id="filter2"
       x="-0.029713268"
       y="-0.036909451"
       width="1.076066"
       height="1.0944882"><feFlood
         result="flood"
         in="SourceGraphic"
         flood-opacity="0.498039"
         flood-color="rgb(0,0,0)"
         id="feFlood1" /><feGaussianBlur
         result="blur"
         in="SourceGraphic"
         stdDeviation="1.000000"
         id="feGaussianBlur1" /><feOffset
         result="offset"
         in="blur"
         dx="1.400000"
         dy="1.400000"
         id="feOffset1" /><feComposite
         result="comp1"
         operator="in"
         in="flood"
         in2="offset"
         id="feComposite1" /><feComposite
         result="comp2"
         operator="over"
         in="SourceGraphic"
         in2="comp1"
         id="feComposite2" /></filter><filter
       style="color-interpolation-filters:sRGB"
       inkscape:label="Drop Shadow"
       id="filter2-0"
       x="-0.029713268"
       y="-0.036909451"
       width="1.076066"
       height="1.0944882"><feFlood
         result="flood"
         in="SourceGraphic"
         flood-opacity="0.498039"
         flood-color="rgb(0,0,0)"
         id="feFlood1-5" /><feGaussianBlur
         result="blur"
         in="SourceGraphic"
         stdDeviation="1.000000"
         id="feGaussianBlur1-0" /><feOffset
         result="offset"
         in="blur"
         dx="1.400000"
         dy="1.400000"
         id="feOffset1-8" /><feComposite
         result="comp1"
         operator="in"
         in="flood"
         in2="offset"
         id="feComposite1-3" /><feComposite
         result="comp2"
         operator="over"
         in="SourceGraphic"
         in2="comp1"
         id="feComposite2-1" /></filter><filter
       style="color-interpolation-filters:sRGB;"
       inkscape:label="Drop Shadow"
       id="filter4"
       x="-0.021728486"
       y="-0.025858696"
       width="1.0546859"
       height="1.0650808"><feFlood
         result="flood"
         in="SourceGraphic"
         flood-opacity="0.498039"
         flood-color="rgb(0,0,0)"
         id="feFlood2" /><feGaussianBlur
         result="blur"
         in="SourceGraphic"
         stdDeviation="1.000000"
         id="feGaussianBlur2" /><feOffset
         result="offset"
         in="blur"
         dx="1.400000"
         dy="1.400000"
         id="feOffset2" /><feComposite
         result="comp1"
         operator="in"
         in="flood"
         in2="offset"
         id="feComposite3" /><feComposite
         result="comp2"
         operator="over"
         in="SourceGraphic"
         in2="comp1"
         id="feComposite4" /></filter><filter
       style="color-interpolation-filters:sRGB;"
       inkscape:label="Drop Shadow"
       id="filter6"
       x="-0.018551346"
       y="-0.074205384"
       width="1.0479243"
       height="1.1916972"><feFlood
         result="flood"
         in="SourceGraphic"
         flood-opacity="0.498039"
         flood-color="rgb(0,0,0)"
         id="feFlood4" /><feGaussianBlur
         result="blur"
         in="SourceGraphic"
         stdDeviation="1.000000"
         id="feGaussianBlur4" /><feOffset
         result="offset"
         in="blur"
         dx="1.400000"
         dy="1.400000"
         id="feOffset4" /><feComposite
         result="comp1"
         operator="in"
         in="flood"
         in2="offset"
         id="feComposite5" /><feComposite
         result="comp2"
         operator="over"
         in="SourceGraphic"
         in2="comp1"
         id="feComposite6" /></filter><filter
       style="color-interpolation-filters:sRGB;"
       inkscape:label="Drop Shadow"
       id="filter8"
       x="-0.071842201"
       y="-0.071077909"
       width="1.183916"
       height="1.1819594"><feFlood
         result="flood"
         in="SourceGraphic"
         flood-opacity="0.498039"
         flood-color="rgb(0,0,0)"
         id="feFlood6" /><feGaussianBlur
         result="blur"
         in="SourceGraphic"
         stdDeviation="1.000000"
         id="feGaussianBlur6" /><feOffset
         result="offset"
         in="blur"
         dx="1.400000"
         dy="1.400000"
         id="feOffset6" /><feComposite
         result="comp1"
         operator="in"
         in="flood"
         in2="offset"
         id="feComposite7" /><feComposite
         result="comp2"
         operator="over"
         in="SourceGraphic"
         in2="comp1"
         id="feComposite8" /></filter><filter
       style="color-interpolation-filters:sRGB"
       inkscape:label="Drop Shadow"
       id="filter8-0"
       x="-0.071842201"
       y="-0.071077909"
       width="1.183916"
       height="1.1819594"><feFlood
         result="flood"
         in="SourceGraphic"
         flood-opacity="0.498039"
         flood-color="rgb(0,0,0)"
         id="feFlood6-8" /><feGaussianBlur
         result="blur"
         in="SourceGraphic"
         stdDeviation="1.000000"
         id="feGaussianBlur6-0" /><feOffset
         result="offset"
         in="blur"
         dx="1.400000"
         dy="1.400000"
         id="feOffset6-3" /><feComposite
         result="comp1"
         operator="in"
         in="flood"
         in2="offset"
         id="feComposite7-3" /><feComposite
         result="comp2"
         operator="over"
         in="SourceGraphic"
         in2="comp1"
         id="feComposite8-6" /></filter><filter
       style="color-interpolation-filters:sRGB"
       inkscape:label="Drop Shadow"
       id="filter8-09"
       x="-0.071842201"
       y="-0.071077909"
       width="1.183916"
       height="1.1819594"><feFlood
         result="flood"
         in="SourceGraphic"
         flood-opacity="0.498039"
         flood-color="rgb(0,0,0)"
         id="feFlood6-3" /><feGaussianBlur
         result="blur"
         in="SourceGraphic"
         stdDeviation="1.000000"
         id="feGaussianBlur6-2" /><feOffset
         result="offset"
         in="blur"
         dx="1.400000"
         dy="1.400000"
         id="feOffset6-4" /><feComposite
         result="comp1"
         operator="in"
         in="flood"
         in2="offset"
         id="feComposite7-0" /><feComposite
         result="comp2"
         operator="over"
         in="SourceGraphic"
         in2="comp1"
         id="feComposite8-7" /></filter><filter
       style="color-interpolation-filters:sRGB"
       inkscape:label="Drop Shadow"
       id="filter8-7"
       x="-0.071842201"
       y="-0.071077909"
       width="1.183916"
       height="1.1819594"><feFlood
         result="flood"
         in="SourceGraphic"
         flood-opacity="0.498039"
         flood-color="rgb(0,0,0)"
         id="feFlood6-9" /><feGaussianBlur
         result="blur"
         in="SourceGraphic"
         stdDeviation="1.000000"
         id="feGaussianBlur6-3" /><feOffset
         result="offset"
         in="blur"
         dx="1.400000"
         dy="1.400000"
         id="feOffset6-2" /><feComposite
         result="comp1"
         operator="in"
         in="flood"
         in2="offset"
         id="feComposite7-2" /><feComposite
         result="comp2"
         operator="over"
         in="SourceGraphic"
         in2="comp1"
         id="feComposite8-62" /></filter><filter
       style="color-interpolation-filters:sRGB"
       inkscape:label="Drop Shadow"
       id="filter8-8"
       x="-0.071842201"
       y="-0.071077909"
       width="1.183916"
       height="1.1819594"><feFlood
         result="flood"
         in="SourceGraphic"
         flood-opacity="0.498039"
         flood-color="rgb(0,0,0)"
         id="feFlood6-7" /><feGaussianBlur
         result="blur"
         in="SourceGraphic"
         stdDeviation="1.000000"
         id="feGaussianBlur6-38" /><feOffset
         result="offset"
         in="blur"
         dx="1.400000"
         dy="1.400000"
         id="feOffset6-6" /><feComposite
         result="comp1"
         operator="in"
         in="flood"
         in2="offset"
         id="feComposite7-9" /><feComposite
         result="comp2"
         operator="over"
         in="SourceGraphic"
         in2="comp1"
         id="feComposite8-79" /></filter><filter
       style="color-interpolation-filters:sRGB;"
       inkscape:label="Drop Shadow"
       id="filter18"
       x="-0.077874882"
       y="-0.08695232"
       width="1.2011768"
       height="1.2246268"><feFlood
         result="flood"
         in="SourceGraphic"
         flood-opacity="0.498039"
         flood-color="rgb(0,0,0)"
         id="feFlood17" /><feGaussianBlur
         result="blur"
         in="SourceGraphic"
         stdDeviation="1.000000"
         id="feGaussianBlur17" /><feOffset
         result="offset"
         in="blur"
         dx="1.400000"
         dy="1.400000"
         id="feOffset17" /><feComposite
         result="comp1"
         operator="in"
         in="flood"
         in2="offset"
         id="feComposite17" /><feComposite
         result="comp2"
         operator="over"
         in="SourceGraphic"
         in2="comp1"
         id="feComposite18" /></filter><filter
       style="color-interpolation-filters:sRGB;"
       inkscape:label="Drop Shadow"
       id="filter20"
       x="-0.07466961"
       y="-0.071005919"
       width="1.1928965"
       height="1.183432"><feFlood
         result="flood"
         in="SourceGraphic"
         flood-opacity="0.498039"
         flood-color="rgb(0,0,0)"
         id="feFlood18" /><feGaussianBlur
         result="blur"
         in="SourceGraphic"
         stdDeviation="1.000000"
         id="feGaussianBlur18" /><feOffset
         result="offset"
         in="blur"
         dx="1.400000"
         dy="1.400000"
         id="feOffset18" /><feComposite
         result="comp1"
         operator="in"
         in="flood"
         in2="offset"
         id="feComposite19" /><feComposite
         result="comp2"
         operator="over"
         in="SourceGraphic"
         in2="comp1"
         id="feComposite20" /></filter><filter
       style="color-interpolation-filters:sRGB;"
       inkscape:label="Drop Shadow"
       id="filter22"
       x="-0.065572509"
       y="-0.082523236"
       width="1.1693956"
       height="1.213185"><feFlood
         result="flood"
         in="SourceGraphic"
         flood-opacity="0.498039"
         flood-color="rgb(0,0,0)"
         id="feFlood20" /><feGaussianBlur
         result="blur"
         in="SourceGraphic"
         stdDeviation="1.000000"
         id="feGaussianBlur20" /><feOffset
         result="offset"
         in="blur"
         dx="1.400000"
         dy="1.400000"
         id="feOffset20" /><feComposite
         result="comp1"
         operator="in"
         in="flood"
         in2="offset"
         id="feComposite21" /><feComposite
         result="comp2"
         operator="over"
         in="SourceGraphic"
         in2="comp1"
         id="feComposite22" /></filter></defs><g
     inkscape:label="Layer 1"
     inkscape:groupmode="layer"
     id="layer1"><image
       width="508.00004"
       height="338.93127"
       preserveAspectRatio="none"
       xlink:href="corkboard-bg.jpg"
       id="image1"
       x="0"
       y="0"
       style="stroke-width:0.4" /><image
       width="36.600704"
       height="29.082718"
       preserveAspectRatio="none"
       style="stroke-width:0.8;image-rendering:optimizeQuality;filter:url(#filter22);fill:#800000;stroke-dasharray:none"
       xlink:href="news-ragman.png"
       id="image1-51"
       x="225.51318"
       y="32.411457" /><path
       style="fill:none;stroke:#800000;stroke-width:0.665;stroke-linecap:butt;stroke-linejoin:miter;stroke-dasharray:none;stroke-opacity:1"
       d="m 239.23963,43.030391 c -0.4603,-0.131513 -0.74578,-0.239736 -1.21607,-0.280632 -0.17086,-0.01487 -0.343,0 -0.5145,0 -0.1715,0 -0.34299,0 -0.51449,0 -0.1715,0 -0.34375,-0.01601 -0.51449,0 -0.30779,0.02886 -1.01433,0.125849 -1.40317,0.233862 -0.14251,0.03959 -0.28063,0.09354 -0.42095,0.140317 -0.14032,0.04677 -0.28063,0.09354 -0.42095,0.140316 -2.23432,0.744773 -0.0563,-0.0071 -1.1693,0.420949 -0.092,0.0354 -0.19244,0.04945 -0.28064,0.09354 -0.10055,0.05028 -0.18193,0.133255 -0.28063,0.187089 -0.0737,0.0402 -0.15876,0.056 -0.23386,0.09354 -0.20589,0.102947 -0.40413,0.220594 -0.60804,0.327406 -0.30399,0.159234 -0.39581,0.17273 -0.65481,0.374176 -0.10442,0.08122 -0.179,0.195943 -0.28063,0.280633 -0.0432,0.03599 -0.1052,0.04965 -0.14032,0.09355 -0.0919,0.114851 -0.15489,0.25009 -0.23386,0.374177 -0.0302,0.04742 -0.0714,0.08865 -0.0935,0.140316 -0.0253,0.05908 -0.0312,0.124725 -0.0468,0.18709 -0.0428,0.171241 -0.0847,0.347686 -0.14031,0.514493 -0.011,0.03307 -0.0312,0.06236 -0.0468,0.09354 -0.0156,0.04677 -0.0326,0.09309 -0.0468,0.140316 -0.0214,0.07123 -0.11689,0.397383 -0.14031,0.514496 -0.0186,0.09299 -0.0282,0.18764 -0.0468,0.280633 -0.0126,0.06303 -0.0383,0.12337 -0.0468,0.187087 -0.0649,0.48709 -0.0468,0.961017 -0.0468,1.449938 0,0.124727 0,0.249451 0,0.374179 0,0.124724 -0.0103,0.24988 0,0.374176 0.0127,0.152522 0.0982,0.320149 0.14032,0.467723 7.9e-4,0.0031 0.0932,0.373422 0.0935,0.374176 0.0388,0.0971 0.0961,0.185859 0.14032,0.280633 0.0649,0.139144 0.12215,0.281805 0.18709,0.420949 0.0442,0.09477 0.0965,0.185674 0.14031,0.280633 0.0498,0.107807 0.0781,0.226283 0.14032,0.327406 0.0638,0.103704 0.16455,0.180518 0.23386,0.280633 0.15624,0.176006 0.19972,0.416505 0.32741,0.608037 0.0675,0.101316 0.15961,0.184118 0.23386,0.280632 0.0818,0.106305 0.15258,0.220726 0.23386,0.327406 0.098,0.128686 0.51065,0.701908 0.74835,0.888672 0.67187,0.527897 0.1996,0.163013 0.56127,0.327406 0.12695,0.0577 0.24945,0.124725 0.37417,0.187087 0.0624,0.03118 0.12157,0.06972 0.18709,0.09355 0.20906,0.07602 0.54152,0.141124 0.74836,0.187087 0.46513,0.103362 0.50144,0.121145 1.02898,0.18709 0.17088,0.02135 0.34374,0.0245 0.5145,0.04677 0.18808,0.02453 0.37237,0.07637 0.56127,0.09354 0.15526,0.0141 0.31181,0 0.46772,0 0.18709,0 0.37418,0 0.56126,0 0.18709,0 0.37466,0.01334 0.56127,0 0.10996,-0.0079 0.21801,-0.0331 0.3274,-0.04677 0.1401,-0.01752 0.28086,-0.02926 0.42095,-0.04677 0.1094,-0.01368 0.21792,-0.03389 0.32741,-0.04677 0.15561,-0.01831 0.31408,-0.01603 0.46772,-0.04677 0.40948,-0.0819 0.54259,-0.189908 0.93544,-0.327404 0.15364,-0.05377 0.31602,-0.08132 0.46773,-0.140316 0.12996,-0.05054 0.25045,-0.122756 0.37417,-0.18709 0.26607,-0.138356 0.54254,-0.259291 0.79513,-0.420949 0.21554,-0.137946 0.54841,-0.501274 0.70158,-0.701582 0.18958,-0.24791 0.43089,-0.661639 0.56127,-0.935445 0.0722,-0.151604 0.12904,-0.310158 0.18709,-0.46772 0.12468,-0.338437 0.18216,-0.526759 0.23386,-0.888672 0.0965,-0.675667 0.0145,-0.336942 0.0468,-0.982216 0.0298,-0.5956 0.0415,-0.328662 0.14032,-0.888671 0.0622,-0.352709 0.0468,-0.392592 0.0468,-0.748353 0,-0.109136 0.0162,-0.21948 0,-0.327406 -0.13345,-0.889667 -0.10085,-0.314709 -0.23386,-0.935445 -0.13575,-0.633497 0.0625,-0.01191 -0.14032,-0.701583 -0.0417,-0.141896 -0.0854,-0.28362 -0.14031,-0.420949 -0.0388,-0.0971 -0.0965,-0.185671 -0.14032,-0.280633 -0.0498,-0.107807 -0.0947,-0.217802 -0.14032,-0.327403 -0.0323,-0.0775 -0.0594,-0.157139 -0.0935,-0.233863 -0.0566,-0.127428 -0.13216,-0.246004 -0.18709,-0.374176 -0.0194,-0.04531 -0.0285,-0.09454 -0.0468,-0.140317 -0.0129,-0.03237 -0.0312,-0.06236 -0.0468,-0.09354 -0.0312,-0.06236 -0.053,-0.130352 -0.0935,-0.18709 -0.0385,-0.05382 -0.0935,-0.09354 -0.14032,-0.140316 -0.0312,-0.03118 -0.0624,-0.06236 -0.0935,-0.09354 -0.078,-0.07795 -0.15591,-0.155908 -0.23386,-0.233862 -0.0312,-0.03118 -0.0574,-0.06826 -0.0935,-0.09354 -0.7805,-0.546354 -0.078,-0.03747 -0.56126,-0.327406 -0.0189,-0.01135 -0.0284,-0.03454 -0.0468,-0.04677 -0.029,-0.01934 -0.0645,-0.02743 -0.0936,-0.04677 -0.0183,-0.01222 -0.0284,-0.03454 -0.0468,-0.04677 -0.029,-0.01934 -0.0663,-0.025 -0.0935,-0.04677 -0.0517,-0.04132 -0.0895,-0.09797 -0.14032,-0.140317 -0.0432,-0.03599 -0.0946,-0.06087 -0.14032,-0.09355 -0.28708,-0.20506 -0.13805,-0.139308 -0.56126,-0.327406 -0.0285,-0.01267 -0.064,0.0099 -0.0935,0 -0.13547,-0.04516 -0.0635,-0.06921 -0.23386,-0.09354 -0.0617,-0.0088 -0.12472,0 -0.18709,0 -0.0624,0 -0.12836,-0.02098 -0.18709,0 -0.16415,0.05863 -0.31181,0.155908 -0.46772,0.233859 z"
       id="path22" /><path
       style="fill:none;stroke:#800000;stroke-width:0.665;stroke-linecap:butt;stroke-linejoin:miter;stroke-dasharray:none;stroke-opacity:1"
       d="m 233.67374,46.865709 c 0.5231,0.523098 0.0605,0.119666 0.46773,0.374179 0.0661,0.04131 0.12365,0.09501 0.18709,0.140317 0.0457,0.03267 0.0953,0.05982 0.14031,0.09354 0.0177,0.01323 0.0271,0.03691 0.0468,0.04677 0.0279,0.01394 0.0715,-0.02204 0.0935,0 0.011,0.01103 -0.011,0.03575 0,0.04677 2.5e-4,2.49e-4 0.13875,-2.65e-4 0.14032,0 0.0338,0.0085 0.0636,0.02884 0.0935,0.04677 0.094,0.0564 0.21892,0.150926 0.3274,0.187089 0.0296,0.0099 0.0624,0 0.0935,0"
       id="path23" /><path
       style="fill:none;stroke:#800000;stroke-width:0.665;stroke-linecap:butt;stroke-linejoin:miter;stroke-dasharray:none;stroke-opacity:1"
       d="m 240.68957,47.006026 c -0.80185,0.212257 -1.53161,0.369729 -2.29184,0.654812 -0.0206,0.0078 -0.0271,0.03691 -0.0468,0.04677 -0.0139,0.007 -0.0357,-0.01103 -0.0468,0 -0.0366,0.03657 0.0407,0.08137 0.0468,0.09355 0.007,0.01394 -0.007,0.03283 0,0.04677 0.01,0.01971 0.0369,0.02705 0.0468,0.04677 0.007,0.01394 0,0.03118 0,0.04677 0,0.01558 0.011,0.03575 0,0.04677 -0.002,0.0016 -0.12897,0 -0.14031,0"
       id="path24" /><path
       style="fill:none;stroke:#800000;stroke-width:0.665;stroke-linecap:butt;stroke-linejoin:miter;stroke-dasharray:none;stroke-opacity:1"
       d="m 239.8009,48.128558 c -0.0624,0.04677 -0.23386,0.07795 -0.18709,0.140316 0.0468,0.06237 0.25874,-0.171021 0.18709,-0.140316 -0.17956,0.07695 -0.34698,0.180125 -0.51449,0.280633 -0.0134,0.008 0.0331,0.0075 0.0468,0 0.15961,-0.08706 0.31181,-0.187087 0.46772,-0.280633 z"
       id="path25" /><path
       style="fill:none;stroke:#800000;stroke-width:0.665;stroke-linecap:butt;stroke-linejoin:miter;stroke-dasharray:none;stroke-opacity:1"
       d="m 234.04792,48.081787 c 0.0624,0.04677 0.14032,0.202679 0.18709,0.140317 0.0468,-0.06236 -0.12473,-0.09355 -0.18709,-0.140317 z"
       id="path27" /><path
       style="fill:none;stroke:#800000;stroke-width:0.665;stroke-linecap:butt;stroke-linejoin:miter;stroke-dasharray:none;stroke-opacity:1"
       d="m 233.86083,52.992864 c 0.48331,-0.140316 0.9591,-0.309814 1.44994,-0.420949 0.33763,-0.07644 0.68611,-0.09269 1.02899,-0.140317 0.21839,-0.03033 0.43567,-0.0692 0.65481,-0.09354 0.062,-0.0069 0.12472,0 0.18709,0 0.14031,0 0.28063,0 0.42095,0 0.0624,0 0.1252,0.0077 0.18708,0 0.0638,-0.008 0.12346,-0.03768 0.18709,-0.04677 0.0463,-0.0066 0.0945,0.0092 0.14032,0 0.0342,-0.0068 0.0605,-0.03575 0.0935,-0.04677 0.0264,-0.0088 0.10959,0 0.14032,0 0.0624,0 0.12557,-0.01024 0.18709,0 0.11843,-0.0044 0.21545,0.07489 0.32741,0.09355 0.0461,0.0077 0.0945,-0.0092 0.14031,0 0.0342,0.0068 0.0605,0.03575 0.0936,0.04677 0.0148,0.0049 0.0328,-0.007 0.0468,0 0.0197,0.0099 0.0271,0.03691 0.0468,0.04677 0.0139,0.007 0.0315,-0.0031 0.0468,0 0.063,0.01262 0.12741,0.02289 0.18709,0.04677 0.0205,0.0082 0.0254,0.04142 0.0468,0.04677 0.0454,0.01135 0.0953,-0.01286 0.14032,0 0.067,0.01915 0.123,0.06608 0.18709,0.09355 0.0906,0.03884 0.18709,0.06236 0.28063,0.09354"
       id="path28" /><path
       style="fill:none;stroke:#800000;stroke-width:0.665;stroke-linecap:butt;stroke-linejoin:miter;stroke-dasharray:none;stroke-opacity:1"
       d="m 234.84305,52.852548 c 0.0468,0.07795 0.10187,0.151481 0.14031,0.233859 0.071,0.152165 0.12473,0.311817 0.18709,0.467723 0.0312,0.07795 0.0519,0.160964 0.0935,0.23386 0.0219,0.03829 0.0691,0.05685 0.0935,0.09355 0.0173,0.02596 -0.022,0.0715 0,0.09354 0.011,0.01103 0.0358,-0.01103 0.0468,0 0.0156,0.03118 0.0312,0.06236 0.0468,0.09355 0.0156,0 0.0358,-0.01103 0.0468,0 0.0125,0.01246 -0.0281,0.09666 0.0468,0.04677 0.12229,-0.08152 0.18106,-0.258011 0.23386,-0.374177 0.0347,-0.07643 0.0594,-0.157138 0.0935,-0.233862 0.0283,-0.06371 0.0766,-0.119446 0.0935,-0.187087 0.0151,-0.0605 0,-0.124727 0,-0.187089 0,-0.04677 0,-0.09354 0,-0.140317 0,-0.171498 0,-0.342995 0,-0.514493"
       id="path29" /><path
       style="fill:none;stroke:#800000;stroke-width:0.665;stroke-linecap:butt;stroke-linejoin:miter;stroke-dasharray:none;stroke-opacity:1"
       d="m 237.78969,52.478371 0.42095,1.356392 c 0.18709,-0.280633 0.39531,-0.548275 0.56127,-0.841898 0.0391,-0.06921 0.0216,-0.158443 0.0468,-0.233861 0.0487,-0.145991 0.0312,0.01559 0.0935,-0.04677 0.011,-0.01102 -0.011,-0.03575 0,-0.04677 0.011,-0.01102 0.0328,0.007 0.0468,0 0.0197,-0.0099 0.0271,-0.03691 0.0468,-0.04677 0.0575,-0.02873 0.15187,-0.0231 0.18709,-0.09354 0.007,-0.01394 0,-0.03118 0,-0.04677"
       id="path30" /><image
       width="30.818667"
       height="27.601334"
       preserveAspectRatio="none"
       xlink:href="notice.jpg"
       id="image1-9"
       x="83.280251"
       y="21.256626"
       style="filter:url(#filter18)" /><image
       width="129.37067"
       height="32.342667"
       preserveAspectRatio="none"
       xlink:href="coaltongue.jpg"
       id="image1-5"
       x="66.052803"
       y="62.61787"
       style="stroke:#000000;stroke-width:1.19302;stroke-opacity:1;filter:url(#filter6)"
       transform="matrix(0.84761373,-0.042095,0.04106508,0.82687556,2.8596021,-6.3135794)" /><text
       xml:space="preserve"
       style="font-size:5.91406px;line-height:1.25;font-family:sans-serif;text-align:center;text-decoration:none;text-decoration-line:none;text-decoration-color:#000000;letter-spacing:0px;text-anchor:middle;fill:#000000;stroke-width:1;stop-color:#000000"
       x="137.41928"
       y="69.233727"
       id="text4"
       transform="matrix(1.0112161,-0.05021997,0.04899127,0.98647523,0,0)"><tspan
         sodipodi:role="line"
         id="tspan4"
         style="font-style:normal;font-variant:normal;font-weight:bold;font-stretch:normal;font-size:5.91406px;font-family:'Segoe Script';-inkscape-font-specification:'Segoe Script, Bold';font-variant-ligatures:normal;font-variant-caps:normal;font-variant-numeric:normal;font-variant-east-asian:normal;stroke-width:1"
         x="137.41928"
         y="69.233727">R.N.S. Coaltongue</tspan></text><g
       id="g10"
       transform="rotate(9.8396166,222.52458,26.962325)"><rect
         style="fill:#f8f2de;stroke:#000000;stroke-width:0.2;stroke-linecap:round;stroke-linejoin:round;stroke-dashoffset:1.10173;stroke-opacity:1;filter:url(#filter8-7)"
         id="rect6-2"
         width="34.798489"
         height="35.172672"
         x="144.31667"
         y="22.608334" /><text
         xml:space="preserve"
         style="font-size:4.23333px;line-height:1.25;font-family:sans-serif;text-align:center;text-decoration:none;text-decoration-line:none;text-decoration-color:#000000;letter-spacing:0px;white-space:pre;shape-inside:url(#rect6-2);display:inline;fill:#000000;stroke-width:1;stop-color:#000000"
         x="209.16513"
         y="74.087112"
         id="text6-9"><tspan
           x="161.71582"
           y="26.469617"
           id="tspan2"><tspan
             style="font-weight:bold;font-family:'Segoe Script';-inkscape-font-specification:'Segoe Script Bold'"
             id="tspan1">
</tspan></tspan><tspan
           x="152.09884"
           y="31.895234"
           id="tspan6"><tspan
             style="font-weight:bold;font-family:'Segoe Script';-inkscape-font-specification:'Segoe Script Bold'"
             id="tspan3">Dockers?
</tspan></tspan><tspan
           x="151.20278"
           y="37.320851"
           id="tspan28"><tspan
             style="font-weight:bold;font-family:'Segoe Script';-inkscape-font-specification:'Segoe Script Bold'"
             id="tspan27">Doodads?
</tspan></tspan><tspan
           x="154.05325"
           y="42.746469"
           id="tspan30"><tspan
             style="font-weight:bold;font-family:'Segoe Script';-inkscape-font-specification:'Segoe Script Bold'"
             id="tspan29">&quot;Gale&quot;?
</tspan></tspan><tspan
           x="156.48204"
           y="48.172086"
           id="tspan32"><tspan
             style="font-weight:bold;font-family:'Segoe Script';-inkscape-font-specification:'Segoe Script Bold'"
             id="tspan31">Vets?</tspan></tspan></text></g><rect
       style="fill:#f8f2de;stroke:#000000;stroke-width:0.2;stroke-linecap:round;stroke-linejoin:round;stroke-dashoffset:1.10173;stroke-opacity:1;filter:url(#filter8)"
       id="rect6"
       width="34.798489"
       height="35.172672"
       x="5.9868336"
       y="3.7417727" /><text
       xml:space="preserve"
       style="font-size:4.23333px;line-height:1.25;font-family:sans-serif;text-align:center;text-decoration:none;text-decoration-line:none;text-decoration-color:#000000;letter-spacing:0px;white-space:pre;shape-inside:url(#rect6);display:inline;fill:#000000;stroke-width:1;stop-color:#000000"
       x="209.16513"
       y="74.087112"
       id="text6"><tspan
         x="23.385742"
         y="7.6043826"
         id="tspan34"><tspan
           style="font-weight:bold;font-family:'Segoe Script';-inkscape-font-specification:'Segoe Script Bold'"
           id="tspan33">
</tspan></tspan><tspan
         x="7.1035456"
         y="13.03"
         id="tspan36"><tspan
           style="font-weight:bold;font-family:'Segoe Script';-inkscape-font-specification:'Segoe Script Bold'"
           id="tspan35">Blah blah blah</tspan></tspan></text><text
       xml:space="preserve"
       style="font-size:6.35px;line-height:1.25;font-family:sans-serif;text-align:center;text-decoration:none;text-decoration-line:none;text-decoration-color:#000000;letter-spacing:0px;text-anchor:middle;fill:#000000;stroke-width:1;stop-color:#000000"
       x="162.39296"
       y="30.308365"
       id="text9"><tspan
         sodipodi:role="line"
         id="tspan9"
         style="stroke-width:1" /></text><g
       id="g12"
       transform="translate(17.727083,-18.785416)"><rect
         style="fill:#f8f2de;stroke:#000000;stroke-width:0.2;stroke-linecap:round;stroke-linejoin:round;stroke-dashoffset:1.10173;stroke-opacity:1;filter:url(#filter8-8)"
         id="rect6-9"
         width="34.798489"
         height="35.172672"
         x="133.20416"
         y="94.839584" /><text
         xml:space="preserve"
         style="font-size:4.23333px;line-height:1.25;font-family:sans-serif;text-align:center;text-decoration:none;text-decoration-line:none;text-decoration-color:#000000;letter-spacing:0px;white-space:pre;shape-inside:url(#rect6-9);display:inline;fill:#000000;stroke-width:1;stop-color:#000000"
         x="209.16513"
         y="74.087112"
         id="text6-1"><tspan
           x="150.60352"
           y="98.702039"
           id="tspan38"><tspan
             style="font-weight:bold;font-family:'Segoe Script';-inkscape-font-specification:'Segoe Script Bold'"
             id="tspan37">
</tspan></tspan><tspan
           x="150.60352"
           y="104.12765"
           id="tspan40"><tspan
             style="font-weight:bold;font-family:'Segoe Script';-inkscape-font-specification:'Segoe Script Bold'"
             id="tspan39">
</tspan></tspan><tspan
           x="135.39722"
           y="109.55327"
           id="tspan42"><tspan
             style="font-weight:bold;font-family:'Segoe Script';-inkscape-font-specification:'Segoe Script Bold'"
             id="tspan41">King Aodhan</tspan></tspan></text></g><path
       style="fill:none;fill-rule:evenodd;stroke:#951b1b;stroke-width:0.75;stroke-linecap:butt;stroke-linejoin:miter;stroke-dasharray:none;stroke-opacity:1"
       d="M 150.93125,80.120842 117.5326,53.881213"
       id="path17"
       inkscape:connector-type="polyline"
       inkscape:connector-curvature="0"
       inkscape:connection-start="#g12" /><image
       width="32.14159"
       height="33.799999"
       preserveAspectRatio="none"
       style="stroke-width:2.14422;filter:url(#filter20);image-rendering:optimizeQuality"
       xlink:href="menu.png"
       id="image1-7"
       x="195.90446"
       y="33.484436"
       transform="rotate(-5.384108,142.12277,-430.26138)" /></g></svg>
